<?xml version="1.0" standalone="no"?>
<!DOCTYPE svg PUBLIC "-//W3C//DTD SVG 20010904//EN"
 "http://www.w3.org/TR/2001/REC-SVG-20010904/DTD/svg10.dtd">
<svg version="1.0" xmlns="http://www.w3.org/2000/svg"
 width="1069.000000pt" height="737.000000pt" viewBox="0 0 1069.000000 737.000000"
 preserveAspectRatio="xMidYMid meet">

<g transform="translate(0.000000,737.000000) scale(0.100000,-0.100000)"
fill="#000000" stroke="none">
<path d="M1815 7060 c-99 -55 -183 -101 -187 -102 -4 -2 27 -144 69 -316 63
-258 74 -315 63 -322 -12 -7 -12 -17 -1 -60 7 -28 12 -52 10 -53 -2 -1 -53
-26 -113 -56 -127 -63 -214 -138 -296 -256 -84 -123 -157 -300 -184 -446 l-6
-36 72 -33 c242 -108 318 -143 315 -146 -2 -2 -88 28 -192 66 -103 39 -189 69
-191 67 -2 -2 5 -32 16 -67 11 -36 33 -135 51 -220 27 -136 30 -169 26 -265
-5 -108 -6 -114 -101 -380 -53 -148 -95 -276 -94 -284 4 -18 732 -580 736
-567 1 6 -8 94 -21 196 -22 176 -23 201 -15 520 4 184 5 352 2 372 -10 65 -57
121 -212 252 -83 70 -152 133 -155 140 -3 7 -8 38 -12 68 -7 52 -11 59 -51 88
-45 32 -62 54 -21 28 12 -8 113 -68 225 -133 156 -92 213 -130 242 -165 48
-57 65 -120 55 -198 -10 -78 -8 -127 10 -187 15 -53 72 -152 118 -205 l27 -32
28 32 c45 53 102 152 117 205 18 60 20 109 10 186 -11 82 7 144 58 201 31 35
93 78 232 159 105 61 205 120 223 131 47 29 39 15 -12 -22 -42 -30 -45 -36
-51 -93 -9 -71 -5 -67 -197 -229 -83 -71 -137 -124 -155 -155 -32 -55 -30 -23
-25 -548 3 -251 0 -311 -18 -448 -12 -87 -20 -162 -18 -166 3 -8 717 540 732
562 6 9 -25 108 -89 288 -95 270 -97 276 -102 384 -4 96 -1 130 26 265 17 85
40 184 51 219 11 36 18 66 16 68 -2 2 -88 -28 -191 -67 -104 -38 -190 -68
-192 -66 -3 3 73 38 315 146 l72 33 -6 36 c-14 78 -57 210 -94 288 -93 199
-218 333 -388 416 -59 29 -109 53 -111 54 -2 1 3 25 10 53 11 43 11 53 -1 60
-11 7 -1 63 60 312 40 167 75 308 76 313 3 8 -363 216 -378 215 -1 0 -84 -45
-183 -100z"/>
<path d="M1226 6601 c-3 -4 -28 -11 -55 -15 -82 -11 -148 -35 -189 -69 -38
-32 -41 -33 -145 -35 -73 -2 -125 -8 -169 -22 -87 -28 -228 -115 -228 -141 0
-4 -11 -20 -24 -34 -13 -14 -32 -43 -41 -63 -9 -20 -21 -46 -26 -57 -46 -96
-50 -625 -8 -995 18 -164 41 -326 46 -340 4 -8 14 -55 24 -105 17 -85 39 -188
58 -265 5 -19 13 -55 19 -80 13 -60 70 -238 122 -380 52 -142 56 -166 38 -188
-46 -55 -51 -157 -13 -266 28 -80 94 -213 131 -263 13 -17 24 -35 24 -39 0 -4
11 -22 25 -40 14 -18 25 -35 25 -38 0 -15 147 -175 227 -250 130 -119 328
-235 509 -296 l91 -32 7 -69 c3 -39 16 -89 27 -112 27 -54 105 -134 147 -152
18 -8 32 -22 33 -32 1 -47 39 -348 53 -427 29 -158 86 -341 161 -511 7 -16 26
-59 41 -95 28 -63 68 -137 106 -192 10 -15 18 -31 18 -36 0 -5 9 -17 20 -27
11 -10 20 -23 20 -30 0 -12 104 -157 182 -253 102 -127 304 -294 428 -354 206
-99 341 -132 545 -132 171 0 268 19 404 79 44 19 82 35 85 35 11 0 158 100
211 143 90 74 287 282 362 383 83 112 113 155 113 161 0 3 6 14 14 22 33 37
139 246 195 384 46 112 121 382 121 434 0 10 6 31 12 46 10 20 20 27 43 27 45
0 185 52 236 87 124 86 214 201 260 333 19 55 22 86 22 200 0 123 -2 141 -26
203 -37 92 -84 164 -156 236 -137 137 -320 197 -525 171 -48 -6 -95 -15 -104
-19 -9 -5 -46 -22 -82 -39 -147 -68 -283 -234 -328 -402 -18 -65 -27 -246 -14
-263 5 -7 13 -30 17 -52 4 -22 10 -44 14 -50 4 -5 14 -26 21 -45 53 -137 222
-295 357 -332 21 -6 41 -14 44 -20 7 -10 -16 -149 -30 -188 -5 -14 -12 -41
-15 -61 -16 -96 -158 -411 -242 -536 -24 -36 -44 -67 -44 -70 0 -2 -4 -9 -10
-16 -17 -21 -104 -131 -120 -152 -8 -11 -71 -77 -140 -148 -121 -124 -274
-242 -340 -262 -14 -4 -30 -11 -36 -16 -6 -5 -47 -19 -90 -31 -106 -29 -356
-31 -449 -4 -173 51 -279 106 -418 216 -118 92 -302 324 -404 506 -87 156
-139 270 -178 389 -14 44 -30 89 -35 100 -5 11 -12 36 -16 55 -3 19 -10 41
-15 50 -23 41 -80 445 -71 506 2 14 17 28 43 39 43 20 108 85 134 135 9 18 19
66 22 107 3 41 11 76 17 78 122 35 227 75 316 119 60 30 115 60 122 65 41 35
92 71 99 71 17 0 242 225 283 283 22 32 53 75 67 95 35 49 73 115 105 182 15
30 30 63 35 72 68 138 78 238 30 322 l-28 51 29 75 c105 272 188 554 231 785
6 33 14 62 18 65 4 3 12 55 19 115 7 61 16 115 20 120 4 6 11 51 14 100 4 50
14 149 23 220 19 167 13 650 -11 761 -28 137 -100 243 -211 313 -91 58 -177
81 -298 81 -97 0 -102 1 -132 28 -62 59 -201 93 -400 99 l-140 4 -41 -35 c-52
-44 -69 -105 -61 -208 7 -86 30 -126 87 -156 41 -22 54 -23 150 -18 194 10
372 58 406 110 16 25 21 26 110 26 51 0 96 -4 99 -10 3 -5 16 -10 29 -10 40 0
124 -50 170 -101 62 -69 77 -119 83 -274 2 -71 9 -139 14 -151 6 -12 8 -62 5
-120 -15 -290 -27 -449 -40 -534 -8 -52 -18 -120 -21 -150 -4 -30 -12 -84 -20
-120 -59 -282 -78 -366 -96 -426 -33 -108 -106 -323 -129 -384 -12 -30 -26
-68 -30 -84 -17 -54 -38 -76 -73 -76 -47 0 -119 -49 -149 -101 -13 -24 -38
-75 -54 -114 -15 -38 -31 -72 -35 -75 -3 -3 -14 -21 -24 -40 -18 -35 -81 -130
-120 -179 -101 -128 -275 -258 -425 -318 -139 -55 -199 -67 -335 -67 -113 0
-142 3 -225 28 -83 24 -215 81 -275 119 -57 36 -170 135 -231 204 -65 73 -144
183 -144 201 0 4 -8 19 -17 32 -10 14 -36 63 -58 110 -22 47 -49 100 -60 118
-22 37 -99 82 -139 82 -30 0 -44 20 -76 105 -13 33 -29 74 -35 90 -7 17 -16
45 -20 62 -3 18 -11 35 -16 38 -5 4 -9 14 -9 23 0 9 -11 55 -26 102 -38 129
-51 176 -74 280 -12 52 -25 113 -30 135 -12 55 -46 257 -65 395 -25 179 -33
362 -30 655 3 294 8 331 62 407 38 56 122 116 172 124 23 4 44 11 47 15 3 5
46 9 96 9 91 0 91 0 125 -35 19 -19 41 -35 49 -35 9 0 28 -6 42 -14 39 -21
180 -45 302 -52 97 -5 109 -4 150 18 72 37 90 74 90 183 0 108 -15 152 -63
189 -33 25 -39 26 -175 26 -77 0 -143 -4 -146 -9z m3824 -3716 c47 -16 131
-71 165 -108 59 -66 88 -126 106 -219 11 -58 10 -77 -4 -142 -16 -72 -56 -154
-101 -205 -28 -31 -136 -101 -156 -101 -9 0 -21 -5 -28 -12 -7 -7 -47 -12
-109 -12 -91 0 -103 2 -173 35 -173 81 -266 264 -231 451 30 163 164 298 323
326 58 11 153 4 208 -13z"/>
<path d="M4860 2711 c-81 -26 -134 -79 -162 -162 -20 -61 -23 -95 -8 -104 6
-3 10 -19 10 -35 0 -37 55 -109 105 -137 92 -51 202 -38 277 35 119 115 98
287 -45 378 -40 26 -134 40 -177 25z"/>
<path d="M4982 6045 c-190 -42 -302 -209 -302 -449 1 -197 94 -362 236 -416
114 -43 300 -38 417 12 l47 20 0 54 0 54 -37 -19 c-110 -56 -262 -69 -352 -30
-84 36 -147 120 -170 227 -41 194 35 398 168 449 69 27 186 23 292 -10 48 -15
90 -27 93 -27 3 0 6 25 6 55 l0 54 -37 10 c-58 15 -189 31 -246 30 -29 0 -81
-7 -115 -14z"/>
<path d="M8835 6046 c-61 -17 -138 -93 -154 -152 -37 -132 17 -213 224 -334
112 -65 151 -102 161 -155 8 -44 -11 -100 -42 -124 -72 -57 -173 -53 -327 13
l-38 17 3 -63 3 -63 70 -17 c259 -62 455 37 455 229 0 113 -45 168 -217 269
-117 68 -142 87 -165 122 -41 62 -6 144 71 170 51 17 137 6 216 -28 l45 -19 0
59 0 58 -52 12 c-86 19 -198 21 -253 6z"/>
<path d="M3975 5614 c-94 -235 -171 -430 -173 -435 -2 -5 23 -9 55 -9 l58 0
46 118 47 117 184 3 184 2 48 -120 48 -120 64 0 c35 0 64 3 64 8 0 4 -75 199
-167 435 l-167 427 -61 0 -60 0 -170 -426z m223 -112 c-78 -1 -143 -1 -145 1
-2 3 29 86 69 186 l72 182 72 -183 72 -183 -140 -3z"/>
<path d="M5560 5605 l0 -435 60 0 60 0 0 205 0 205 208 -2 207 -3 3 -202 2
-203 60 0 60 0 0 435 0 435 -60 0 -60 0 -2 -182 -3 -183 -207 -3 -208 -2 0
185 0 185 -60 0 -60 0 0 -435z"/>
<path d="M6440 5605 l0 -435 65 0 65 0 0 435 0 435 -65 0 -65 0 0 -435z"/>
<path d="M6790 5605 l0 -435 255 0 255 0 0 45 0 45 -195 0 -195 0 0 390 0 390
-60 0 -60 0 0 -435z"/>
<path d="M7430 5605 l0 -435 255 0 255 0 0 45 0 45 -195 0 -195 0 0 390 0 390
-60 0 -60 0 0 -435z"/>
<path d="M8070 5605 l0 -435 255 0 255 0 0 45 0 45 -195 0 -195 0 0 160 0 160
155 0 155 0 0 45 0 45 -155 0 -155 0 0 135 0 135 180 0 180 0 0 50 0 50 -240
0 -240 0 0 -435z"/>
<path d="M10068 4995 c-56 -18 -131 -89 -148 -141 -7 -20 -10 -62 -8 -94 6
-83 40 -128 151 -198 48 -32 116 -75 150 -97 68 -44 88 -74 89 -134 1 -53 -28
-97 -80 -123 -57 -27 -141 -20 -247 21 l-76 29 3 -61 3 -61 45 -14 c27 -9 92
-15 165 -16 102 -1 127 2 165 20 166 76 202 284 70 396 -21 18 -91 65 -155
103 -65 39 -129 85 -142 102 -44 57 -30 129 34 170 40 27 141 22 226 -9 l67
-26 0 58 0 57 -52 12 c-87 20 -207 23 -260 6z"/>
<path d="M3830 4940 l0 -50 210 0 c116 0 210 -3 210 -6 0 -3 -101 -153 -225
-334 -221 -322 -225 -329 -225 -379 l0 -51 305 0 305 0 0 50 0 50 -229 2 -229
3 229 334 c220 322 229 337 229 383 l0 48 -290 0 -290 0 0 -50z"/>
<path d="M4580 4555 l0 -435 60 0 60 0 0 435 0 435 -60 0 -60 0 0 -435z"/>
<path d="M4920 4555 l0 -435 260 0 260 0 0 45 0 45 -195 0 -195 0 0 160 0 160
150 0 150 0 0 45 0 45 -150 0 -150 0 0 135 0 135 180 0 180 0 0 50 0 50 -245
0 -245 0 0 -435z"/>
<path d="M5570 4555 l0 -435 60 0 60 0 0 218 0 217 38 -43 c20 -23 105 -121
187 -217 l150 -174 78 0 c60 -1 76 2 71 12 -5 6 -93 108 -197 224 -122 138
-186 217 -181 225 4 7 79 99 166 205 87 105 158 194 158 197 0 3 -26 6 -58 6
l-59 0 -174 -211 -174 -212 -3 212 -2 211 -60 0 -60 0 0 -435z"/>
<path d="M6360 4555 l0 -435 255 0 255 0 0 45 0 45 -195 0 -196 0 3 158 3 157
153 3 152 3 0 44 0 45 -155 0 -155 0 0 135 0 135 183 2 182 3 3 48 3 47 -245
0 -246 0 0 -435z"/>
<path d="M7010 4555 l0 -435 55 0 55 0 2 325 3 325 210 -322 211 -323 62 -3
62 -3 0 436 0 435 -55 0 -55 0 -2 -326 -3 -326 -212 323 -211 324 -61 3 -61 3
0 -436z"/>
<path d="M7890 4555 l0 -435 65 0 65 0 0 205 0 205 205 0 205 0 0 -205 0 -205
65 0 65 0 0 435 0 435 -65 0 -65 0 0 -185 0 -185 -205 0 -205 0 0 185 0 185
-65 0 -65 0 0 -435z"/>
<path d="M8773 4653 c3 -255 7 -348 17 -378 8 -22 37 -63 65 -91 58 -59 130
-84 236 -84 98 0 162 23 219 78 77 75 80 95 80 484 l0 328 -55 0 -55 0 0 -333
c0 -325 -1 -334 -22 -377 -53 -105 -232 -122 -314 -29 -44 50 -47 78 -52 417
l-4 322 -60 0 -59 0 4 -337z"/>
<path d="M9610 4555 l0 -435 60 0 60 0 0 435 0 435 -60 0 -60 0 0 -435z"/>
<path d="M1845 3906 c4 -43 9 -85 12 -92 4 -11 35 -14 143 -14 158 0 144 -11
156 116 l6 69 -162 0 -162 0 7 -79z"/>
</g>
</svg>
